<?xml version="1.0" encoding="utf-8"?>
<svg viewBox="0 0 384 512" xmlns="http://www.w3.org/2000/svg">
  <path d="M 0 48 C 0 21.5 21.5 0 48 0 L 48 48 L 48 441.4 L 178.1 348.5 C 186.4 342.5 197.7 342.5 206 348.5 L 336 441.4 L 205.784 348.781 L 47.389 441.705 L 48 0 L 336 0 C 362.5 0 384 21.5 384 48 L 384 488 C 384 497 379 505.2 371 509.3 C 363 513.4 353.4 512.7 346.1 507.5 L 192 397.5 L 37.9 507.5 C 30.6 512.7 21 513.4 13 509.3 C 5 505.2 0 497 0 488 L 0 48 Z" style="fill: rgb(126, 34, 206);" transform="matrix(1, 0, 0, 1, 7.105427357601002e-15, 7.105427357601002e-15)"/>
</svg>